<svg xmlns="http://www.w3.org/2000/svg" width="209" height="29" viewBox="0 0 209 29" fill="none"><path d="M7.136 26V12.84L15.872 26H20.352V5.28H15.872V18.468L7.136 5.28H2.656V26H7.136ZM25.3957 26L26.8797 21.632H33.5717L35.0277 26H39.8437L32.4797 5.28H28.0557L20.6637 26H25.3957ZM29.6797 13.4C29.9317 12.644 30.1557 11.86 30.2397 11.384C30.3237 11.888 30.5757 12.7 30.7997 13.4L32.2837 17.824H28.1957L29.6797 13.4ZM36.7272 9.48H42.6072V26H47.1432V9.48H53.0232V5.28H36.7272V9.48ZM65.4572 17.908V13.82H58.1772V9.48H66.8292V5.28H53.6412V26H58.1772V17.908H65.4572ZM72.374 5.28H67.838V26H80.55V21.8H72.374V5.28ZM85.8326 5.28H81.2966V26H85.8326V5.28ZM93.32 15.64L86.404 26H91.724L96.176 19.112C97.184 20.96 97.856 22.192 98.892 23.844L100.264 26H105.64L99.088 15.64L105.64 5.28H100.348L96.204 12.14C95.28 10.432 94.552 9.172 93.796 7.996L92.06 5.28H86.656L93.32 15.64Z" fill="#FF006B"></path><path d="M120.517 26H123.149V12.308H114.441V10.124C114.441 8.64 114.861 7.772 116.457 7.772H117.633V5.504C117.129 5.42 116.513 5.392 116.009 5.392C113.629 5.392 111.809 6.764 111.809 10.124V12.308H109.793V14.52H111.809V26H114.441V14.52H120.517V26ZM121.833 8.948C122.757 8.948 123.485 8.22 123.485 7.268C123.485 6.316 122.757 5.588 121.833 5.588C120.881 5.588 120.153 6.316 120.153 7.268C120.153 8.22 120.881 8.948 121.833 8.948ZM128.653 26V14.52H131.341V12.308H128.653V8.024H126.021V12.308H123.333V14.52H126.021V26H128.653ZM134.235 26V18.748C134.235 16.088 135.663 14.324 138.127 14.324C140.143 14.324 141.431 15.444 141.431 18.216V26H144.063V17.628C144.063 14.128 142.411 11.916 138.799 11.916C136.867 11.916 135.131 12.84 134.263 14.408L133.983 12.308H131.603V26H134.235ZM151.517 26.336C154.905 26.336 157.201 24.684 157.873 21.744H155.409C154.961 23.312 153.617 24.152 151.573 24.152C148.969 24.152 147.457 22.556 147.261 19.672L157.845 19.644V18.664C157.845 14.604 155.297 11.916 151.405 11.916C147.429 11.916 144.713 14.884 144.713 19.168C144.713 23.424 147.485 26.336 151.517 26.336ZM151.405 14.128C153.729 14.128 155.213 15.64 155.213 17.908H147.317C147.653 15.5 149.109 14.128 151.405 14.128ZM157.564 22.024C157.564 24.628 159.608 26.336 162.828 26.336C166.076 26.336 168.316 24.684 168.316 22.08C168.316 20.036 167.168 18.972 164.844 18.412L162.436 17.824C161.092 17.488 160.42 16.872 160.42 15.948C160.42 14.688 161.344 13.96 162.996 13.96C164.592 13.96 165.516 14.828 165.572 16.2H168.092C168.036 13.596 166.076 11.916 163.08 11.916C160.056 11.916 157.928 13.512 157.928 16.032C157.928 18.048 159.076 19.252 161.512 19.84L163.92 20.4C165.348 20.764 165.796 21.324 165.796 22.248C165.796 23.508 164.732 24.264 162.884 24.264C161.148 24.264 160.084 23.424 160.084 22.024H157.564ZM168.015 22.024C168.015 24.628 170.059 26.336 173.279 26.336C176.527 26.336 178.767 24.684 178.767 22.08C178.767 20.036 177.619 18.972 175.295 18.412L172.887 17.824C171.543 17.488 170.871 16.872 170.871 15.948C170.871 14.688 171.795 13.96 173.447 13.96C175.043 13.96 175.967 14.828 176.023 16.2H178.543C178.487 13.596 176.527 11.916 173.531 11.916C170.507 11.916 168.379 13.512 168.379 16.032C168.379 18.048 169.527 19.252 171.963 19.84L174.371 20.4C175.799 20.764 176.247 21.324 176.247 22.248C176.247 23.508 175.183 24.264 173.335 24.264C171.599 24.264 170.535 23.424 170.535 22.024H168.015Z" fill="#D9D9D9"></path></svg>