<svg xmlns="http://www.w3.org/2000/svg" width="149" height="39" viewBox="0 0 149 39" fill="none"><path d="M16 6.70312V32H10.2344L6.8125 20.5V32H1.3125V6.70312H6.8125L10.5 18.0938V6.70312H16Z" fill="url(#paint0_linear_339_856)"></path><path d="M36.2344 23.4268V24.5H32.1055V23.4268H36.2344ZM32.3311 14.5469V24.5H31.0732V14.5469H32.3311ZM45.2947 15.4287L42.574 24.5H41.2889L44.4949 14.5469H45.3016L45.2947 15.4287ZM47.4959 24.5L44.7752 15.4287L44.7615 14.5469H45.575L48.7811 24.5H47.4959ZM47.4959 20.8154V21.8955H42.6971V20.8154H47.4959ZM60.8561 14.5469V24.5H59.5914L55.6061 16.8232V24.5H54.3482V14.5469H55.6061L59.6119 22.2441V14.5469H60.8561ZM72.2133 21.335H73.4711C73.4392 22.0186 73.3002 22.6087 73.0541 23.1055C72.8126 23.5977 72.4594 23.9759 71.9945 24.2402C71.5342 24.5046 70.9577 24.6367 70.265 24.6367C69.7683 24.6367 69.3194 24.5387 68.9184 24.3428C68.5173 24.1468 68.1732 23.8665 67.8861 23.502C67.6036 23.1328 67.3871 22.6908 67.2367 22.1758C67.0863 21.6608 67.0111 21.082 67.0111 20.4395V18.6006C67.0111 17.9626 67.0863 17.3861 67.2367 16.8711C67.3917 16.3561 67.6127 15.9163 67.8998 15.5518C68.1915 15.1826 68.5447 14.9001 68.9594 14.7041C69.3786 14.5081 69.8526 14.4102 70.3812 14.4102C71.0284 14.4102 71.5753 14.54 72.0219 14.7998C72.473 15.055 72.8194 15.431 73.0609 15.9277C73.307 16.4199 73.4437 17.0238 73.4711 17.7393H72.2133C72.1814 17.2152 72.0993 16.7891 71.9672 16.4609C71.835 16.1283 71.6391 15.8844 71.3793 15.7295C71.1241 15.57 70.7914 15.4902 70.3812 15.4902C70.0167 15.4902 69.6999 15.5632 69.4311 15.709C69.1667 15.8548 68.948 16.0645 68.7748 16.3379C68.6062 16.6068 68.4786 16.9326 68.392 17.3154C68.31 17.6937 68.2689 18.1175 68.2689 18.5869V20.4395C68.2689 20.877 68.3031 21.2848 68.3715 21.6631C68.4444 22.0413 68.5583 22.374 68.7133 22.6611C68.8728 22.9437 69.0801 23.1647 69.3354 23.3242C69.5906 23.4837 69.9005 23.5635 70.265 23.5635C70.7253 23.5635 71.0899 23.4883 71.3588 23.3379C71.6277 23.1875 71.8259 22.9482 71.9535 22.6201C72.0857 22.292 72.1723 21.8636 72.2133 21.335ZM69.807 24.5684H70.6547L70.5863 24.9307C70.8005 24.9762 70.9942 25.0856 71.1674 25.2588C71.3451 25.432 71.434 25.7168 71.434 26.1133C71.434 26.3275 71.3975 26.5212 71.3246 26.6943C71.2517 26.8721 71.14 27.0225 70.9896 27.1455C70.8438 27.2731 70.6615 27.3711 70.4428 27.4395C70.224 27.5078 69.9688 27.542 69.6771 27.542L69.6361 26.8105C69.8093 26.8105 69.9597 26.7878 70.0873 26.7422C70.2195 26.6966 70.322 26.6237 70.3949 26.5234C70.4724 26.4232 70.5111 26.2933 70.5111 26.1338C70.5111 25.9834 70.4792 25.8649 70.4154 25.7783C70.3562 25.6917 70.2605 25.6257 70.1283 25.5801C70.0007 25.5391 69.8298 25.5094 69.6156 25.4912L69.807 24.5684ZM82.5998 15.4287L79.8791 24.5H78.5939L81.8 14.5469H82.6066L82.5998 15.4287ZM84.801 24.5L82.0803 15.4287L82.0666 14.5469H82.8801L86.0861 24.5H84.801ZM84.801 20.8154V21.8955H80.0021V20.8154H84.801ZM92.0498 14.5469H93.2666L95.8711 22.6611L98.4688 14.5469H99.6855L96.3428 24.5H95.3857L92.0498 14.5469ZM91.6533 14.5469H92.7197L92.9043 20.6172V24.5H91.6533V14.5469ZM99.0088 14.5469H100.075V24.5H98.8242V20.6172L99.0088 14.5469ZM111.788 23.4268V24.5H107.468V23.4268H111.788ZM107.693 14.5469V24.5H106.435V14.5469H107.693ZM111.207 18.8262V19.8994H107.468V18.8262H111.207ZM111.72 14.5469V15.627H107.468V14.5469H111.72ZM124.102 14.5469V24.5H122.838L118.852 16.8232V24.5H117.594V14.5469H118.852L122.858 22.2441V14.5469H124.102ZM133.47 14.5469V24.5H132.226V14.5469H133.47ZM136.088 14.5469V15.627H129.615V14.5469H136.088ZM148.04 18.6621V20.3916C148.04 21.0934 147.963 21.7109 147.808 22.2441C147.657 22.7728 147.436 23.2148 147.145 23.5703C146.853 23.9258 146.502 24.1924 146.092 24.3701C145.682 24.5479 145.219 24.6367 144.704 24.6367C144.208 24.6367 143.754 24.5479 143.344 24.3701C142.934 24.1924 142.581 23.9258 142.284 23.5703C141.988 23.2148 141.758 22.7728 141.594 22.2441C141.434 21.7109 141.355 21.0934 141.355 20.3916V18.6621C141.355 17.9603 141.434 17.3451 141.594 16.8164C141.753 16.2832 141.981 15.8389 142.278 15.4834C142.574 15.1279 142.927 14.8613 143.337 14.6836C143.747 14.5013 144.201 14.4102 144.697 14.4102C145.212 14.4102 145.675 14.5013 146.085 14.6836C146.5 14.8613 146.851 15.1279 147.138 15.4834C147.43 15.8389 147.653 16.2832 147.808 16.8164C147.963 17.3451 148.04 17.9603 148.04 18.6621ZM146.796 20.3916V18.6484C146.796 18.1016 146.751 17.6322 146.659 17.2402C146.568 16.8438 146.434 16.5202 146.256 16.2695C146.078 16.0189 145.86 15.8343 145.6 15.7158C145.34 15.5928 145.039 15.5312 144.697 15.5312C144.374 15.5312 144.082 15.5928 143.822 15.7158C143.567 15.8343 143.348 16.0189 143.166 16.2695C142.984 16.5202 142.843 16.8438 142.742 17.2402C142.647 17.6322 142.599 18.1016 142.599 18.6484V20.3916C142.599 20.943 142.647 21.417 142.742 21.8135C142.843 22.2054 142.984 22.529 143.166 22.7842C143.353 23.0348 143.576 23.2217 143.836 23.3447C144.096 23.4632 144.385 23.5225 144.704 23.5225C145.046 23.5225 145.347 23.4632 145.607 23.3447C145.871 23.2217 146.09 23.0348 146.263 22.7842C146.441 22.529 146.573 22.2054 146.659 21.8135C146.751 21.417 146.796 20.943 146.796 20.3916Z" fill="white"></path><defs><linearGradient id="paint0_linear_339_856" x1="-7.05155" y1="-4" x2="23.9291" y2="-2.41025" gradientUnits="userSpaceOnUse"><stop stop-color="#FF0099"></stop><stop offset="0.977387" stop-color="#D20D00"></stop></linearGradient></defs></svg>