<svg xmlns="http://www.w3.org/2000/svg" id="Camada_2" data-name="Camada 2" viewBox="0 0 34.39 49.42"><g id="Camada_1-2" data-name="Camada 1"><path d="m34.39,49.42H.97v-6.63l15.77-16.81c2.17-2.37,3.77-4.43,4.8-6.2,1.04-1.76,1.56-3.44,1.56-5.02,0-2.17-.55-3.87-1.64-5.11s-2.66-1.86-4.69-1.86c-2.19,0-3.91.75-5.17,2.26-1.26,1.51-1.89,3.49-1.89,5.94H0c0-2.97.71-5.68,2.13-8.14,1.42-2.46,3.42-4.38,6.01-5.78S13.66,0,16.94,0c5.02,0,8.92,1.21,11.7,3.62,2.78,2.41,4.17,5.82,4.17,10.21,0,2.41-.62,4.87-1.88,7.37-1.25,2.5-3.39,5.41-6.43,8.74l-11.08,11.69h20.96v7.8Z"></path></g></svg>