<svg xmlns="http://www.w3.org/2000/svg" id="Camada_2" data-name="Camada 2" viewBox="0 0 33.85 50.09"><g id="Camada_1-2" data-name="Camada 1"><path d="m11.02,20.76h5.16c2.46,0,4.27-.61,5.46-1.84s1.77-2.86,1.77-4.89-.59-3.49-1.76-4.59-2.79-1.64-4.84-1.64c-1.85,0-3.41.51-4.66,1.52s-1.88,2.34-1.88,3.97H.6c0-2.54.69-4.83,2.06-6.85,1.37-2.02,3.29-3.6,5.76-4.74,2.47-1.14,5.18-1.71,8.15-1.71,5.16,0,9.2,1.23,12.12,3.7,2.92,2.47,4.39,5.87,4.39,10.2,0,2.23-.68,4.29-2.04,6.16-1.36,1.88-3.15,3.31-5.36,4.32,2.75.98,4.79,2.46,6.14,4.42,1.35,1.96,2.03,4.29,2.03,6.96,0,4.33-1.58,7.8-4.74,10.41-3.16,2.61-7.34,3.92-12.54,3.92-4.87,0-8.85-1.28-11.94-3.85-3.09-2.57-4.64-5.96-4.64-10.18h9.68c0,1.83.69,3.33,2.06,4.49,1.37,1.16,3.06,1.74,5.07,1.74,2.3,0,4.1-.61,5.41-1.82,1.31-1.22,1.96-2.83,1.96-4.84,0-4.87-2.68-7.3-8.04-7.3h-5.12v-7.57Z"></path></g></svg>