<svg xmlns="http://www.w3.org/2000/svg" xmlns:xlink="http://www.w3.org/1999/xlink" id="Camada_2" viewBox="0 0 553.87 275.57"><defs><style>.cls-1{fill:#fff;}.cls-2{fill:#efbe25;}.cls-3{fill:#ffcd00;}.cls-4{fill:url(#Gradiente_sem_nome_16);}.cls-5{fill:#121a44;}.cls-6{fill:#fa0;}</style><linearGradient id="Gradiente_sem_nome_16" x1="40.73" y1="137.79" x2="513.14" y2="137.79" gradientUnits="userSpaceOnUse"><stop offset="0" stop-color="#121a44"></stop><stop offset="1" stop-color="#15255c"></stop></linearGradient></defs><g id="_&#x421;&#x43B;&#x43E;&#x439;_2"><g><polygon class="cls-4" points="454.09 0 276.93 0 99.78 0 40.73 157.47 276.93 275.57 513.14 157.47 454.09 0"></polygon><path class="cls-1" d="M432.87,30.62l41.92,111.79-197.86,98.93L79.08,142.41,121,30.62H432.87Zm3.03-4.37H117.97l-44.37,118.32,203.33,101.67,203.33-101.67-44.37-118.32h0Z"></path><g><polygon class="cls-2" points="553.87 187.76 406.02 187.76 406.02 271.61 553.87 271.61 516.35 229.68 553.87 187.76"></polygon><polygon class="cls-2" points="0 187.76 147.84 187.76 147.84 271.61 0 271.61 37.51 229.68 0 187.76"></polygon></g><polygon class="cls-6" points="492.08 223.06 403.81 271.61 403.81 187.76 492.08 223.06"></polygon><polygon class="cls-6" points="61.79 223.06 150.05 271.61 150.05 187.76 61.79 223.06"></polygon><rect class="cls-3" x="61.79" y="139.21" width="430.29" height="83.85"></rect><g><path class="cls-3" d="M172.58,61.32h-20.79v-13.01h37.54v12.45l-17.23,63.39h-16.85l17.32-62.82Z"></path><path class="cls-3" d="M222.68,48.31h19.94c20.69,0,26.4,6.93,26.4,24.25v27.34c0,17.32-5.71,24.25-26.4,24.25h-19.94V48.31Zm20.22,63.01c6.37,0,7.02-2.15,7.02-7.4v-35.58c0-5.15-.66-7.21-7.02-7.21h-1.69v50.18h1.69Z"></path><path class="cls-3" d="M279.14,48.31h18.54V124.15h-18.54V48.31Z"></path><path class="cls-3" d="M319.02,48.31h21.63l13.58,75.84h-16.95l-2.34-15.17h-9.83l-2.34,15.17h-17.51l13.76-75.84Zm14.33,50l-3.37-28.28-3.37,28.28h6.74Z"></path><path class="cls-3" d="M359.47,100.74l15.73-2.06c.09,10.3,2.43,12.64,5.43,12.64s3.09-2.81,3.09-4.49c0-6.18-3.09-9.92-8.43-14.42l-4.78-4.03c-5.99-5.06-11.05-11.05-11.05-20.69,0-13.29,8.61-20.5,22.28-20.5,17.42,0,18.73,14.51,18.82,22.1l-16.1,1.59c0-6.55-.09-10.3-3.37-10.3-2.53,0-3.46,3.46-3.46,5.24,0,5.9,3.37,8.99,8.05,13.11l4.4,3.84c6.74,5.81,11.98,12.45,11.98,23.22s-7.77,19.38-20.32,19.38c-14.7,0-21.82-6.65-22.28-24.62Z"></path></g><g><path class="cls-5" d="M111.63,155.65h12.79c13.27,0,16.93,4.44,16.93,15.55v17.53c0,11.1-3.66,15.55-16.93,15.55h-12.79v-48.62Zm12.97,40.4c4.08,0,4.5-1.38,4.5-4.74v-22.81c0-3.3-.42-4.62-4.5-4.62h-1.08v32.17h1.08Z"></path><path class="cls-5" d="M147.83,155.65h22.75v7.98h-10.87v10.87h8.1v8.28h-8.1v13.57h10.93v7.92h-22.81v-48.62Z"></path><path class="cls-5" d="M190.63,188.13v-16.33c0-10.2,3.72-16.87,15.07-16.87s14.65,6.12,14.65,14.23v3.48h-11.71v-4.62c0-2.16-.06-4.86-2.82-4.86s-3,2.76-3,4.86v23.83c0,2.16,.6,4.92,3.36,4.92s3.48-2.76,3.48-4.92v-6.36h-3.9v-6.78h14.59v25.57h-7.92l-.6-3.54c-1.26,2.46-3.48,4.32-7.62,4.32-10.33,0-13.57-7.02-13.57-16.93Z"></path><path class="cls-5" d="M233.56,155.65h13.87l8.7,48.62h-10.86l-1.5-9.72h-6.3l-1.5,9.72h-11.23l8.82-48.62Zm9.18,32.06l-2.16-18.13-2.16,18.13h4.32Z"></path><path class="cls-5" d="M261.05,155.65h14.47c9.78,0,16.69,2.34,16.69,12.85,0,6.06-1.02,9.96-5.94,12.49l6.6,23.29h-12.43l-5.04-21.49h-2.46v21.49h-11.88v-48.62Zm15.01,20.59c4.14,0,5.16-2.76,5.16-6.48s-1.14-6.24-4.62-6.24h-3.66v12.73h3.12Z"></path><path class="cls-5" d="M305.12,155.65h13.87l8.7,48.62h-10.86l-1.5-9.72h-6.3l-1.5,9.72h-11.23l8.82-48.62Zm9.18,32.06l-2.16-18.13-2.16,18.13h4.32Z"></path><path class="cls-5" d="M332.61,155.65h8.4l8.88,20.83v-20.83h9.84v48.62h-8.16l-8.76-22.87v22.87h-10.2v-48.62Z"></path><path class="cls-5" d="M370.98,164.48h-7.08v-8.82h26.05v8.82h-7.02v39.8h-11.95v-39.8Z"></path><path class="cls-5" d="M394.09,155.65h11.88v48.62h-11.88v-48.62Z"></path><path class="cls-5" d="M419.66,155.65h13.87l8.7,48.62h-10.86l-1.5-9.72h-6.3l-1.5,9.72h-11.23l8.82-48.62Zm9.18,32.06l-2.16-18.13-2.16,18.13h4.32Z"></path></g></g></g></svg>